<svg width="27" height="27" viewBox="0 0 27 27" fill="none" xmlns="http://www.w3.org/2000/svg">
<path d="M25.4552 14.923H1.54631C1.33021 14.9227 1.12303 14.8368 0.970128 14.6841C0.817222 14.5314 0.731048 14.3244 0.730469 14.1083V12.0771C0.730758 11.8608 0.816805 11.6534 0.969742 11.5005C1.12268 11.3476 1.33002 11.2615 1.54631 11.2612H25.4552C25.6715 11.2615 25.8788 11.3476 26.0317 11.5005C26.1847 11.6534 26.2707 11.8608 26.271 12.0771V14.1068C26.2708 14.3231 26.1848 14.5306 26.0319 14.6836C25.8789 14.8366 25.6715 14.9227 25.4552 14.923ZM1.54631 11.9924C1.52375 11.9925 1.50212 12.0014 1.48603 12.0172C1.46994 12.033 1.46067 12.0545 1.4602 12.0771V14.1068C1.46029 14.1296 1.4694 14.1515 1.48553 14.1676C1.50165 14.1837 1.5235 14.1928 1.54631 14.1929H25.4552C25.4777 14.1928 25.4994 14.1839 25.5154 14.1681C25.5315 14.1523 25.5408 14.1308 25.5413 14.1083V12.0771C25.5412 12.0543 25.5321 12.0324 25.516 12.0163C25.4998 12.0002 25.478 11.9911 25.4552 11.991L1.54631 11.9924Z" fill="#6A2727"/>
<path d="M21.2756 24.8474H5.72287C5.28826 24.8491 4.86749 24.6948 4.53696 24.4126C4.20643 24.1304 3.98807 23.739 3.92153 23.3095L2.53796 14.617C2.52945 14.5648 2.53238 14.5113 2.54656 14.4604C2.56074 14.4095 2.58583 14.3622 2.62008 14.3219C2.65434 14.2816 2.69694 14.2492 2.74494 14.227C2.79294 14.2049 2.8452 14.1934 2.89808 14.1934H24.1004C24.1531 14.1934 24.2052 14.2049 24.2531 14.227C24.301 14.2491 24.3435 14.2813 24.3777 14.3214C24.412 14.3615 24.4371 14.4086 24.4514 14.4594C24.4657 14.5102 24.4688 14.5634 24.4605 14.6155L23.0773 23.3113C23.0104 23.7406 22.7918 24.1316 22.4612 24.4134C22.1306 24.6952 21.71 24.8492 21.2756 24.8474ZM3.32571 14.9231L4.64141 23.195C4.6814 23.4527 4.81253 23.6876 5.01098 23.8569C5.20942 24.0262 5.46201 24.1188 5.72287 24.1177H21.2756C21.5363 24.1187 21.7888 24.0262 21.9872 23.8569C22.1855 23.6877 22.3166 23.453 22.3567 23.1953L23.6728 14.9231H3.32571Z" fill="#6A2727"/>
<path d="M18.0118 22.2172C17.9941 22.2173 17.9765 22.216 17.9589 22.2136C17.8632 22.1997 17.7769 22.1483 17.719 22.0708C17.6611 21.9933 17.6364 21.8959 17.6503 21.8002L18.3267 17.139C18.3328 17.091 18.3485 17.0446 18.3727 17.0027C18.3969 16.9607 18.4293 16.924 18.4678 16.8947C18.5064 16.8654 18.5504 16.8441 18.5973 16.8319C18.6442 16.8198 18.6931 16.8171 18.741 16.8241C18.789 16.831 18.835 16.8475 18.8766 16.8724C18.9181 16.8974 18.9542 16.9303 18.9829 16.9694C19.0115 17.0085 19.0321 17.0529 19.0434 17.1C19.0547 17.1471 19.0566 17.1959 19.0488 17.2438L18.3727 21.9045C18.3602 21.9913 18.3168 22.0707 18.2505 22.1281C18.1843 22.1855 18.0995 22.2172 18.0118 22.2172Z" fill="#6A2727"/>
<path d="M13.4996 22.2174C13.4029 22.2174 13.3101 22.179 13.2416 22.1105C13.1732 22.0421 13.1348 21.9493 13.1348 21.8525V17.191C13.1348 17.0943 13.1732 17.0015 13.2416 16.933C13.3101 16.8646 13.4029 16.8262 13.4996 16.8262C13.5964 16.8262 13.6892 16.8646 13.7576 16.933C13.8261 17.0015 13.8645 17.0943 13.8645 17.191V21.8525C13.8645 21.9493 13.8261 22.0421 13.7576 22.1105C13.6892 22.179 13.5964 22.2174 13.4996 22.2174Z" fill="#6A2727"/>
<path d="M8.98931 22.2174C8.90174 22.2172 8.81715 22.1856 8.75097 22.1283C8.68479 22.0709 8.64143 21.9917 8.62882 21.905L7.952 17.2435C7.94422 17.1957 7.94604 17.1468 7.95736 17.0997C7.96867 17.0526 7.98925 17.0082 8.0179 16.9692C8.04655 16.9301 8.08269 16.8971 8.12422 16.8722C8.16574 16.8472 8.21182 16.8308 8.25976 16.8238C8.30771 16.8169 8.35655 16.8196 8.40346 16.8317C8.45036 16.8438 8.49438 16.8652 8.53294 16.8945C8.57151 16.9238 8.60385 16.9605 8.62808 17.0024C8.65231 17.0444 8.66794 17.0907 8.67407 17.1388L9.35053 21.8C9.3644 21.8957 9.33967 21.993 9.28179 22.0706C9.2239 22.1481 9.1376 22.1995 9.04185 22.2134C9.02445 22.2159 9.0069 22.2172 8.98931 22.2174Z" fill="#6A2727"/>
<path d="M22.4647 11.9923C22.3947 11.9924 22.3263 11.9724 22.2674 11.9346C22.2086 11.8969 22.1618 11.8431 22.1326 11.7796L18.3209 3.47013C18.2091 3.22673 18.0053 3.03766 17.7542 2.94447C17.5031 2.85129 17.2253 2.86162 16.9818 2.97319C16.8062 3.05516 16.6574 3.18541 16.553 3.34874C16.4486 3.51206 16.3929 3.70172 16.3922 3.89557C16.392 4.04065 16.4236 4.18401 16.4849 4.31553L19.7738 11.4749C19.7938 11.5185 19.805 11.5655 19.8068 11.6134C19.8086 11.6613 19.801 11.7091 19.7843 11.754C19.7677 11.799 19.7424 11.8402 19.7098 11.8754C19.6772 11.9105 19.638 11.9389 19.5944 11.9589C19.5509 11.9789 19.5038 11.9901 19.4559 11.9919C19.408 11.9938 19.3602 11.9861 19.3153 11.9695C19.2704 11.9528 19.2291 11.9275 19.194 11.8949C19.1588 11.8623 19.1305 11.8231 19.1104 11.7796L15.8216 4.62055C15.7163 4.39325 15.6618 4.14571 15.6621 3.8952C15.6631 3.56207 15.7589 3.2361 15.9383 2.95542C16.1177 2.67474 16.3734 2.45095 16.6753 2.31023C16.8831 2.21479 17.1075 2.16123 17.336 2.15261C17.5644 2.14398 17.7923 2.18046 18.0066 2.25995C18.2209 2.33945 18.4175 2.4604 18.5851 2.6159C18.7526 2.7714 18.8879 2.9584 18.9831 3.1662L22.7963 11.4753C22.8218 11.5308 22.8329 11.5919 22.8287 11.6529C22.8244 11.7139 22.8049 11.7728 22.7719 11.8243C22.7389 11.8757 22.6935 11.9181 22.6399 11.9475C22.5863 11.9768 22.5261 11.9922 22.465 11.9923H22.4647Z" fill="#6A2727"/>
<path d="M4.53641 11.9923C4.47528 11.9922 4.41514 11.9768 4.36152 11.9474C4.3079 11.9181 4.26252 11.8757 4.22953 11.8242C4.19655 11.7728 4.17703 11.7138 4.17277 11.6529C4.1685 11.5919 4.17962 11.5308 4.20511 11.4752L8.01686 3.16581C8.20915 2.74653 8.5601 2.42078 8.99252 2.26019C9.42495 2.09961 9.90344 2.11733 10.3228 2.30947C10.6253 2.44991 10.8815 2.67367 11.0614 2.95451C11.2413 3.23535 11.3375 3.56165 11.3386 3.89518C11.3389 4.14593 11.2845 4.39373 11.1791 4.62126L7.89061 11.7795C7.85021 11.8675 7.77652 11.9358 7.68576 11.9694C7.59499 12.0031 7.49458 11.9993 7.40662 11.9589C7.31866 11.9185 7.25035 11.8448 7.21671 11.754C7.18308 11.6632 7.18689 11.5628 7.22729 11.4749L10.5162 4.31587C10.5777 4.18415 10.6094 4.04053 10.6092 3.89518C10.6085 3.70101 10.5526 3.51106 10.4478 3.34757C10.3431 3.18408 10.1939 3.05383 10.0178 2.97207C9.77436 2.861 9.49683 2.85102 9.24607 2.94432C8.99531 3.03762 8.7918 3.22658 8.68018 3.46974L4.86844 11.7795C4.83929 11.8431 4.7925 11.8969 4.73363 11.9346C4.67477 11.9723 4.60631 11.9923 4.53641 11.9923Z" fill="#6A2727"/>
</svg>
