<svg width="89" height="89" viewBox="0 0 89 89" fill="none" xmlns="http://www.w3.org/2000/svg">
<path d="M44.1016 22.7622V25.6075C44.8869 25.6075 45.5242 26.2449 45.5242 27.0302H48.3695C48.3695 24.6771 46.4546 22.7622 44.1016 22.7622Z" fill="#FFD9D9"/>
<path d="M18.2577 28.4729L18.7246 31.2793L24.4148 30.3327L23.9479 27.5262L18.2577 28.4729Z" fill="#FFD9D9"/>
<path d="M84.2365 10.2232L82.4966 6.74478C80.4167 2.58353 76.2355 0 71.5834 0C68.189 0 64.9212 1.43119 62.6179 3.92509L49.181 18.4816C47.6929 17.5925 45.9587 17.0718 44.1021 17.0718C42.2456 17.0718 40.5114 17.5925 39.0218 18.4816L25.5849 3.92509C23.2817 1.43119 20.0138 0 16.6208 0C11.9687 0 7.78758 2.58353 5.70767 6.74478L3.96777 10.2232C1.37286 15.4158 0 21.2274 0 27.0303C0 32.8333 1.37286 38.6448 3.96777 43.8361L5.70767 47.3145C6.79173 49.4826 8.45338 51.2083 10.4465 52.3777L9.33116 54.2371C7.88005 56.6542 7.11325 59.4241 7.11325 62.2452C7.11325 66.4704 8.86453 70.5705 11.919 73.4912L24.5763 85.5965L24.5862 85.5866C26.3574 87.207 28.7062 88.2043 31.2897 88.2043H32.0309C34.6885 88.2043 37.1881 87.1686 39.0674 85.2892L41.8458 82.5137L27.3149 67.9827L38.1711 36.5009L39.0218 35.579C40.5114 36.4682 42.2456 36.9889 44.1021 36.9889C45.9587 36.9889 47.6929 36.4682 49.1824 35.5805L50.0331 36.5023L60.8894 67.9827L46.3584 82.5137L49.134 85.2892C51.0134 87.1686 53.513 88.2043 56.1705 88.2043H56.9117C59.4952 88.2043 61.8454 87.207 63.6166 85.5866L63.6266 85.5965L76.2853 73.4912C79.3397 70.5691 81.091 66.4704 81.091 62.2452C81.091 59.4241 80.3242 56.6542 78.8731 54.2385L77.7563 52.3791C79.7509 51.2097 81.4125 49.484 82.4952 47.3159L84.2351 43.8375C86.8314 38.6448 88.2043 32.8333 88.2043 27.0303C88.2043 21.2274 86.8314 15.4158 84.2365 10.2232ZM64.7078 5.85562C66.4761 3.94358 68.98 2.8453 71.5834 2.8453C73.7871 2.8453 75.85 3.60499 77.4832 4.93659L78.0963 5.68917C79.1093 6.93542 79.6684 8.50317 79.6684 10.1065C79.6684 13.4597 77.2769 16.3505 73.982 16.9765L52.1159 21.142C51.8926 20.839 51.6536 20.5502 51.3989 20.2756L64.7078 5.85562ZM37.8226 82.5137L37.0586 83.2776C35.7355 84.6007 33.9046 85.359 32.0338 85.359H31.2926C27.3732 85.359 24.185 82.1708 24.185 78.2528C24.185 77.4604 24.3159 76.6808 24.572 75.9353L26.282 70.9745L37.8226 82.5137ZM21.8832 75.0078C21.5233 76.0534 21.3397 77.146 21.3397 78.2528C21.3397 78.3624 21.3525 78.4705 21.3568 78.5786L13.8865 71.4341C11.3897 69.0469 9.95854 65.6979 9.95854 62.2452C9.95854 59.9405 10.5845 57.677 11.7696 55.7024L13.0741 53.53C14.2052 53.8715 15.3945 54.0607 16.6208 54.0607C17.0746 54.0607 17.5242 54.0308 17.9709 53.981L15.7231 60.7244L18.4205 61.6249L21.2515 53.1331C22.8819 52.463 24.37 51.453 25.5849 50.137L33.3654 41.7078L21.8832 75.0078ZM23.4965 48.2065C21.7281 50.1185 19.2243 51.2154 16.6208 51.2154C13.0542 51.2154 9.84758 49.2336 8.25279 46.0426L6.51289 42.5642C4.1143 37.7656 2.8453 32.3951 2.8453 27.0303C2.8453 22.0468 3.95354 17.0647 6.03203 12.535C6.96102 16.1584 9.87888 19.0479 13.6887 19.7734L34.7013 23.7767C34.4751 24.4283 34.3129 25.1083 34.2261 25.8125L26.797 27.0503L27.2636 29.8571L34.293 28.6863C34.6216 30.6382 35.5164 32.3951 36.8068 33.7865L23.4965 48.2065ZM36.0898 21.142L14.2222 16.9765C10.9274 16.3505 8.5359 13.4611 8.5359 10.1065C8.5359 8.50317 9.095 6.93542 10.1065 5.68917L10.7197 4.93659C12.3529 3.60499 14.4171 2.8453 16.6208 2.8453C19.2243 2.8453 21.7281 3.94358 23.4965 5.85562L36.8068 20.2756C36.5521 20.5516 36.3131 20.8404 36.0898 21.142ZM44.1021 34.1436C40.1799 34.1436 36.9889 30.9526 36.9889 27.0303C36.9889 23.1081 40.1799 19.9171 44.1021 19.9171C48.0244 19.9171 51.2154 23.1081 51.2154 27.0303C51.2154 30.9526 48.0244 34.1436 44.1021 34.1436ZM56.9131 85.359H56.1705C54.2997 85.359 52.4687 84.6007 51.1457 83.2776L50.3817 82.5137L61.9208 70.9745L63.6308 75.9353C63.8883 76.6808 64.0192 77.4604 64.0192 78.2528C64.0192 82.1708 60.8311 85.359 56.9131 85.359ZM78.2457 62.2452C78.2457 65.6979 76.8145 69.0469 74.3178 71.4355L66.8474 78.58C66.8517 78.4705 66.8645 78.3624 66.8645 78.2528C66.8645 77.146 66.681 76.0534 66.3211 75.0078L54.8374 41.7064L62.6179 50.1356C63.5469 51.1414 64.6381 51.9651 65.826 52.601L68.3597 60.2008L71.0571 59.3003L69.2304 53.8217C70.0029 53.9753 70.7896 54.0607 71.5834 54.0607C72.8098 54.0607 73.9991 53.8715 75.1301 53.53L76.4347 55.7024C77.6197 57.677 78.2457 59.9405 78.2457 62.2452ZM81.6914 42.5642L79.9515 46.0426C78.3567 49.2336 75.15 51.2154 71.5834 51.2154C68.98 51.2154 66.4747 50.1185 64.7078 48.205L51.3975 33.7851C52.7049 32.3738 53.6054 30.5884 53.9227 28.6052L65.284 29.8671L65.5984 27.0389L53.9682 25.7471C53.88 25.0657 53.7221 24.407 53.503 23.7753L74.5141 19.7734C78.3254 19.0479 81.2432 16.1584 82.1722 12.535C84.2507 17.0647 85.359 22.0468 85.359 27.0303C85.359 32.3951 84.09 37.7656 81.6914 42.5642Z" fill="#FFD9D9"/>
</svg>
