<svg width="89" height="89" viewBox="0 0 89 89" fill="none" xmlns="http://www.w3.org/2000/svg">
<path d="M79.4197 53.1147C76.449 53.1178 73.5218 53.831 70.8804 55.1955C68.239 56.5599 65.9593 58.5364 64.2302 60.9611L62.2786 63.7038L49.6896 67.916H49.0651L59.8188 57.1216C60.025 56.9146 60.1654 56.6508 60.2223 56.3637C60.2793 56.0766 60.2501 55.779 60.1385 55.5086C60.0269 55.2381 59.8379 55.0069 59.5954 54.8443C59.3529 54.6817 59.0678 54.5949 58.7761 54.5949H55.4997C48.7677 54.5762 42.303 57.2375 37.5227 61.9955H29.5527C27.4035 61.9896 25.2745 62.4116 23.2889 63.2372C21.3033 64.0628 19.5006 65.2755 17.985 66.8051L0.226562 84.6308L2.31183 86.724L20.0703 68.8983C21.3126 67.6444 22.7904 66.6503 24.4181 65.9736C26.0457 65.2969 27.7909 64.9509 29.5527 64.9557H38.1326C38.3263 64.9557 38.518 64.9174 38.6969 64.843C38.8758 64.7687 39.0383 64.6596 39.1753 64.5222L39.4808 64.2155C43.6502 60.0072 49.3021 57.6153 55.2145 57.5568L41.5136 71.3097L43.5989 73.4029L46.116 70.8762H49.9289C50.0874 70.8762 50.2449 70.8505 50.3952 70.8002L63.666 66.3599C63.9617 66.261 64.2185 66.0706 64.3996 65.816L66.63 62.6817C69.0007 59.3574 72.562 57.0839 76.5665 56.3383L68.0984 69.6958L48.1517 78.2768H27.8109C27.6172 78.2768 27.4255 78.3151 27.2466 78.3895C27.0677 78.4638 26.9051 78.5729 26.7682 78.7103L19.3955 86.1109L21.4808 88.2041L28.4217 81.237H48.4544C48.6541 81.237 48.8517 81.1963 49.0352 81.1173L69.6788 72.2366C69.9515 72.1193 70.1826 71.9221 70.342 71.6708L80.6637 55.3895C80.8055 55.1657 80.8849 54.9078 80.8934 54.6427C80.902 54.3776 80.8394 54.1151 80.7122 53.8826C80.5851 53.6501 80.398 53.4562 80.1706 53.3211C79.9433 53.186 79.6839 53.1148 79.4197 53.1147Z" fill="#FFD9D9"/>
<path d="M42.9881 54.161C43.125 54.2986 43.2876 54.4078 43.4666 54.4822C43.6456 54.5567 43.8374 54.595 44.0311 54.595C44.2249 54.595 44.4167 54.5567 44.5957 54.4822C44.7747 54.4078 44.9373 54.2986 45.0742 54.161L71.607 27.5056C74.6169 24.483 76.3073 20.3841 76.3064 16.1104C76.3055 11.8368 74.6134 7.73854 71.6023 4.71725C68.5911 1.69595 64.5076 -0.000889976 60.2501 3.50186e-07C55.9926 0.000890677 51.9098 1.69944 48.8999 4.72199L44.0311 9.60908L39.1624 4.72199C36.1525 1.69944 32.0697 0.000892632 27.8122 3.17329e-06C23.5547 -0.000886286 19.4712 1.69596 16.46 4.71725C13.4489 7.73854 11.7567 11.8368 11.7559 16.1104C11.755 20.3841 13.4454 24.483 16.4553 27.5056L42.9881 54.161ZM18.5453 6.81515C21.0028 4.34842 24.3359 2.96263 27.8112 2.96263C31.2866 2.96263 34.6196 4.34842 37.0771 6.81515L42.9885 12.7489C43.265 13.0265 43.6401 13.1824 44.0312 13.1824C44.4222 13.1824 44.7973 13.0265 45.0738 12.7489L50.9852 6.81515C53.4421 4.34786 56.7749 2.96135 60.2503 2.96063C63.7257 2.95991 67.059 4.34504 69.517 6.81131C71.975 9.27758 73.3563 12.623 73.357 16.1115C73.3577 19.6001 71.9778 22.946 69.5208 25.4133L44.0311 51.0208L18.5415 25.4133C16.0896 22.9441 14.7132 19.5997 14.7139 16.1134C14.7146 12.6271 16.0925 9.28335 18.5453 6.81515Z" fill="#FFD9D9"/>
<path d="M28.0173 8.18974V5.2295C26.8416 5.22771 25.6746 5.43109 24.5684 5.83053L25.5681 8.61552C26.3537 8.33222 27.1825 8.18815 28.0173 8.18974Z" fill="#FFD9D9"/>
<path d="M22.7265 20.3336C21.4566 18.9638 20.767 17.152 20.8035 15.2813C20.84 13.4105 21.5996 11.6272 22.922 10.3083C22.9874 10.2427 23.0539 10.1784 23.1214 10.1156L21.1168 7.94434C21.0219 8.0326 20.9285 8.12288 20.8367 8.21517C18.9732 10.0741 17.9027 12.5875 17.8515 15.2241C17.8003 17.8608 18.7724 20.4141 20.5624 22.3445L22.7265 20.3336Z" fill="#FFD9D9"/>
<path d="M0 12.458H8.84722V15.4182H0V12.458Z" fill="#FFD9D9"/>
<path d="M1.12695 3.87549L1.89076 1.0159L10.4372 3.316L9.67337 6.1756L1.12695 3.87549Z" fill="#FFD9D9"/>
<path d="M0.925781 24.6953L9.4722 22.3952L10.236 25.2548L1.68959 27.5549L0.925781 24.6953Z" fill="#FFD9D9"/>
<path d="M79.3574 12.458H88.2046V15.4182H79.3574V12.458Z" fill="#FFD9D9"/>
<path d="M77.7773 3.30029L86.3238 1.00019L87.0876 3.85978L78.5412 6.15989L77.7773 3.30029Z" fill="#FFD9D9"/>
<path d="M77.582 25.2534L78.3458 22.3938L86.8923 24.6939L86.1284 27.5535L77.582 25.2534Z" fill="#FFD9D9"/>
</svg>
