<svg width="48" height="48" viewBox="0 0 48 48" fill="none" xmlns="http://www.w3.org/2000/svg">
<path d="M34.7535 0H13.246C5.94215 0 0 5.94243 0 13.2463V34.7537C0 42.0578 5.94215 48 13.246 48H34.7535C42.0578 48 48 42.0576 48 34.7537V13.2463C48.0003 5.94243 42.0578 0 34.7535 0ZM43.7415 34.7537C43.7415 39.7096 39.7096 43.7412 34.7537 43.7412H13.246C8.29045 43.7415 4.25879 39.7096 4.25879 34.7537V13.2463C4.25879 8.29073 8.29045 4.25879 13.246 4.25879H34.7535C39.7093 4.25879 43.7412 8.29073 43.7412 13.2463V34.7537H43.7415Z" fill="#FA516E"/>
<path d="M23.9992 11.6318C17.1792 11.6318 11.6309 17.1802 11.6309 24.0002C11.6309 30.82 17.1792 36.368 23.9992 36.368C30.8193 36.368 36.3676 30.82 36.3676 24.0002C36.3676 17.1802 30.8193 11.6318 23.9992 11.6318ZM23.9992 32.109C19.5278 32.109 15.8897 28.4714 15.8897 23.9999C15.8897 19.5282 19.5275 15.8903 23.9992 15.8903C28.471 15.8903 32.1088 19.5282 32.1088 23.9999C32.1088 28.4714 28.4707 32.109 23.9992 32.109Z" fill="#FA516E"/>
<path d="M36.8868 8.021C36.0663 8.021 35.2602 8.35318 34.6807 8.93522C34.0984 9.51441 33.7637 10.3207 33.7637 11.1441C33.7637 11.9649 34.0987 12.771 34.6807 13.353C35.2599 13.9322 36.0663 14.2672 36.8868 14.2672C37.7102 14.2672 38.5137 13.9322 39.0957 13.353C39.6777 12.771 40.0099 11.9646 40.0099 11.1441C40.0099 10.3207 39.6777 9.51441 39.0957 8.93522C38.5165 8.35318 37.7102 8.021 36.8868 8.021Z" fill="#FA516E"/>
</svg>
