<svg width="34" height="34" viewBox="0 0 34 34" fill="none" xmlns="http://www.w3.org/2000/svg">
<path d="M24.617 0H9.38257C4.20902 0 0 4.20922 0 9.38277V24.6172C0 29.791 4.20902 34 9.38257 34H24.617C29.791 34 34 29.7908 34 24.6172V9.38277C34.0002 4.20922 29.791 0 24.617 0ZM30.9836 24.6172C30.9836 28.1276 28.1276 30.9834 24.6172 30.9834H9.38257C5.8724 30.9836 3.01664 28.1276 3.01664 24.6172V9.38277C3.01664 5.8726 5.8724 3.01664 9.38257 3.01664H24.617C28.1274 3.01664 30.9834 5.8726 30.9834 9.38277V24.6172H30.9836Z" fill="white"/>
<path d="M16.9992 8.23926C12.1684 8.23926 8.23828 12.1693 8.23828 17.0002C8.23828 21.8309 12.1684 25.7607 16.9992 25.7607C21.8301 25.7607 25.7602 21.8309 25.7602 17.0002C25.7602 12.1693 21.8301 8.23926 16.9992 8.23926ZM16.9992 22.7439C13.8319 22.7439 11.2549 20.1673 11.2549 17C11.2549 13.8325 13.8317 11.2557 16.9992 11.2557C20.1667 11.2557 22.7435 13.8325 22.7435 17C22.7435 20.1673 20.1665 22.7439 16.9992 22.7439Z" fill="white"/>
<path d="M26.1282 5.68164C25.547 5.68164 24.9761 5.91694 24.5656 6.32921C24.1531 6.73948 23.916 7.31063 23.916 7.89385C23.916 8.47525 24.1533 9.04621 24.5656 9.45848C24.9759 9.86874 25.547 10.1061 26.1282 10.1061C26.7114 10.1061 27.2806 9.86874 27.6929 9.45848C28.1051 9.04621 28.3404 8.47505 28.3404 7.89385C28.3404 7.31063 28.1051 6.73948 27.6929 6.32921C27.2826 5.91694 26.7114 5.68164 26.1282 5.68164Z" fill="white"/>
</svg>
