<svg width="81" height="67" viewBox="0 0 81 67" fill="none" xmlns="http://www.w3.org/2000/svg">
<path d="M36.6797 35.1697C38.6328 39.4409 43.3479 39.145 44.7881 35.1697" stroke="#6A2727" stroke-width="0.8"/>
<path d="M38.7109 34.5877C39.362 31.9836 42.1141 32.1315 42.6862 34.5877" stroke="#6A2727" stroke-width="0.8"/>
<path d="M53.0239 32.2203C53.0239 12.117 28.166 11.969 28.166 32.2203C33.3447 31.5101 33.134 26.9133 35.4162 30.4743C36.7715 32.5889 37.5353 31.264 38.3085 29.9229L38.3262 29.8923C39.1054 28.5409 39.8946 30.4743 40.5851 31.3128C41.568 32.5063 42.8604 31.27 43.3273 30.4743C44.2534 28.896 44.9056 30.9182 45.8032 31.6482C46.9771 32.6027 47.9734 31.3128 48.3778 30.4743C49.4674 28.2154 49.7292 32.2203 53.0239 32.2203Z" fill="#FF8787" stroke="#6A2727" stroke-width="0.3"/>
<circle cx="40.1416" cy="34.3015" r="0.295927" fill="#6A2727"/>
<circle cx="41.2451" cy="34.3015" r="0.295927" fill="#6A2727"/>
<path d="M32.3759 18.6148C31.1231 18.1611 28.3513 19.9268 28.9727 22.0575C27.6213 20.2885 23.487 20.489 22.9161 25.431C22.2848 30.8958 27.5326 31.1128 27.5326 37.6232C27.5326 45.8499 17.7571 55.9115 12.0458 45.85C15.222 50.6242 19.5965 44.5577 16.6326 41.1151C14.0679 38.1361 10.4747 38.4419 6.37382 33.1152C-14.2523 6.32401 31.0541 -10.1295 32.3759 18.6148Z" fill="#FF8787" stroke="#6A2727" stroke-width="0.3"/>
<path d="M49.0987 18.6148C50.3515 18.1611 53.1233 19.9268 52.5019 22.0575C53.8533 20.2885 57.9876 20.489 58.5585 25.431C59.1898 30.8958 53.942 31.1128 53.942 37.6232C53.942 45.8499 63.7175 55.9115 69.4289 45.85C66.2526 50.6242 61.8782 44.5577 64.842 41.1151C67.4067 38.1361 70.9999 38.4419 75.1008 33.1152C95.7269 6.32401 50.4205 -10.1295 49.0987 18.6148Z" fill="#FF8787" stroke="#6A2727" stroke-width="0.3"/>
<path d="M49.3343 3.23914C47.7758 1.72005 46.7221 4.89633 48.3775 8.42774C49.2791 10.3512 47.6574 13.202 45.9805 11.9295" stroke="#6A2727" stroke-width="0.8"/>
<path d="M45.1726 1.75952L44.5117 11.022H45.725" stroke="#6A2727" stroke-width="0.8"/>
<path d="M33.3151 12.2946C33.4392 12.2946 33.5575 12.2792 33.6702 12.2497M33.6702 12.2497C36.5844 11.4877 35.6858 1.29271 31.6875 3.50553L33.6702 12.2497Z" stroke="#6A2727" stroke-width="0.8"/>
<path d="M39.5031 6.22329C39.6469 7.51051 39.6443 8.77609 39.4799 9.72041C39.3973 10.195 39.2783 10.5614 39.136 10.8054C38.9941 11.0486 38.8639 11.1167 38.7651 11.1277C38.5319 11.1537 38.3373 11.0813 38.1493 10.8994C37.948 10.7046 37.7597 10.3863 37.5917 9.94382C37.2562 9.06018 37.0523 7.82134 36.9062 6.51345C36.7619 5.22225 36.7661 4.0684 36.9365 3.23722C37.0218 2.82068 37.1434 2.51339 37.2858 2.31211C37.4219 2.1199 37.5646 2.03837 37.7189 2.02114C37.8357 2.00809 37.9791 2.04698 38.1576 2.2112C38.3404 2.3795 38.5313 2.65611 38.7132 3.04398C39.0757 3.81701 39.3595 4.93878 39.5031 6.22329Z" stroke="#6A2727" stroke-width="0.8"/>
<path d="M42.2229 1L41.6113 10.5091H43.0811" stroke="#6A2727" stroke-width="0.8"/>
<path d="M49.3213 52C49.4221 52 49.5182 51.9865 49.6096 51.9606M49.6096 51.9606C51.9755 51.2909 51.246 42.3309 48 44.2756L49.6096 51.9606Z" stroke="#6A2727" stroke-width="0.8"/>
<path d="M37 53.7089C37.2502 53.5163 37.4697 52.6273 37.6968 51.481M40 54L39.8772 51.8481M39.8772 51.8481L39.4865 45C38.6471 45.7863 38.1564 49.1607 37.6968 51.481M39.8772 51.8481C39.1214 52.0304 38.1087 51.6793 37.6968 51.481" stroke="#6A2727" stroke-width="0.8"/>
<path d="M33.9958 44L33.4979 47.7483M33 51.4967L33.4979 47.7483M33.4979 47.7483L35.2437 48.1767L36 44.4284L34.5 52" stroke="#6A2727" stroke-width="0.8"/>
<path d="M43.6947 54C43.5263 50.16 43 47.112 43 45.492C43.6947 46.812 45.2421 51.768 46 53.868L45.5053 45" stroke="#6A2727" stroke-width="0.8"/>
<path d="M43.5624 65.8241C43.6816 65.8318 43.7963 65.8246 43.9063 65.8034M43.9063 65.8034C46.7531 65.256 46.5275 55.4309 42.5487 57.3005L43.9063 65.8034Z" stroke="#6A2727" stroke-width="0.8"/>
<path d="M37.0175 66.2248C37.2498 66.0564 37.4949 65.2286 37.7613 64.1582M39.6548 66.6606L39.6692 64.6217M39.6692 64.6217L39.7153 58.1332C38.9278 58.8308 38.3007 61.9914 37.7613 64.1582M39.6692 64.6217C38.9902 64.7533 38.1144 64.3675 37.7613 64.1582" stroke="#6A2727" stroke-width="0.8"/>
<path d="M31 64.2154L33.1116 56C33.5735 57.8476 33.1813 61.444 32.9686 63.1046L36.268 56.3079L34.1564 65.1283" stroke="#6A2727" stroke-width="0.8"/>
<path d="M49.5853 56.0001L48 56C48.4102 56.5469 48.8301 58.1319 49.204 59.8603M50.0236 64.0285H51.8151M50.0236 64.0285C49.8063 62.9017 49.5218 61.3292 49.204 59.8603M50.0236 64.0285L49.204 59.8603M49.204 59.8603C49.455 59.6139 50.5316 59.5727 50.7002 59.5911" stroke="#6A2727" stroke-width="0.8"/>
</svg>
