<svg width="110" height="91" viewBox="0 0 110 91" fill="none" xmlns="http://www.w3.org/2000/svg">
<path d="M49.8535 47.7861C52.5278 53.6344 58.9838 53.2292 60.9558 47.7861" stroke="white" stroke-width="0.8"/>
<path d="M52.6348 46.9895C53.5262 43.4238 57.2945 43.6264 58.0778 46.9895" stroke="white" stroke-width="0.8"/>
<path d="M72.2314 43.7479C72.2314 16.2219 38.1953 16.0193 38.1953 43.7479C45.2862 42.7754 44.9976 36.4815 48.1225 41.3573C49.9782 44.2527 51.0241 42.4386 52.0828 40.6023L52.1069 40.5604C53.1739 38.71 54.2544 41.3573 55.1999 42.5053C56.5457 44.1396 58.3153 42.4468 58.9546 41.3573C60.2227 39.1963 61.1157 41.9651 62.3447 42.9645C63.952 44.2716 65.3162 42.5053 65.8699 41.3573C67.3618 38.2643 67.7203 43.7479 72.2314 43.7479Z" fill="#FF8787" stroke="white" stroke-width="0.3"/>
<circle cx="54.5946" cy="46.5976" r="0.405192" fill="white"/>
<circle cx="56.1064" cy="46.5976" r="0.405192" fill="white"/>
<path d="M43.9608 25.1188C42.2455 24.4975 38.4502 26.9152 39.3011 29.8326C37.4508 27.4104 31.7899 27.6851 31.0082 34.4518C30.1438 41.9343 37.3292 42.2314 37.3292 51.1457C37.3292 62.41 23.9444 76.1865 16.1242 62.41C20.4732 68.9471 26.4628 60.6407 22.4047 55.9269C18.893 51.848 13.9731 52.2667 8.358 44.9732C-19.8839 8.28987 42.151 -14.2388 43.9608 25.1188Z" fill="#FF8787" stroke="white" stroke-width="0.3"/>
<path d="M66.8595 25.1188C68.5748 24.4975 72.3701 26.9152 71.5192 29.8326C73.3695 27.4104 79.0304 27.6851 79.8121 34.4518C80.6765 41.9343 73.4911 42.2314 73.4911 51.1457C73.4911 62.41 86.8759 76.1865 94.6961 62.41C90.3471 68.9471 84.3575 60.6407 88.4156 55.9269C91.9273 51.848 96.8472 52.2667 102.462 44.9732C130.704 8.28987 68.6693 -14.2388 66.8595 25.1188Z" fill="#FF8787" stroke="white" stroke-width="0.3"/>
<path d="M67.182 4.06591C65.048 1.98592 63.6054 6.33498 65.8719 11.1703C67.1064 13.804 64.8859 17.7074 62.5898 15.965" stroke="white" stroke-width="0.8"/>
<path d="M61.4831 2.04004L60.5781 14.7225H62.2394" stroke="white" stroke-width="0.8"/>
<path d="M45.2481 16.4651C45.418 16.4651 45.5801 16.4441 45.7343 16.4037M45.7343 16.4037C49.7245 15.3604 48.4941 1.40105 43.0195 4.43091L45.7343 16.4037Z" stroke="white" stroke-width="0.8"/>
<path d="M53.8672 8.13543C54.0651 9.90643 54.0625 11.6543 53.8343 12.9655C53.7197 13.6236 53.5528 14.1446 53.3454 14.5002C53.1384 14.8549 52.9259 14.9916 52.7264 15.0139C52.3576 15.0551 52.0488 14.9361 51.7641 14.6606C51.4662 14.3723 51.1988 13.9135 50.9653 13.2985C50.4988 12.0697 50.2182 10.3572 50.018 8.56553C49.8196 6.79055 49.8238 5.19325 50.0615 4.03356C50.1805 3.45277 50.3526 3.00996 50.564 2.71121C50.769 2.42153 50.9993 2.2806 51.2611 2.25134C51.4758 2.22735 51.7128 2.30542 51.9782 2.54969C52.248 2.79803 52.5192 3.19554 52.7727 3.73591C53.2782 4.81395 53.6696 6.36715 53.8672 8.13543Z" stroke="white" stroke-width="0.8"/>
<path d="M57.4448 1L56.6074 14.0202H58.6199" stroke="white" stroke-width="0.8"/>
<path d="M66.6183 69.3424C66.7525 69.3424 66.8806 69.3258 67.0025 69.294M67.0025 69.294C70.1552 68.4709 69.1831 57.4583 64.8574 59.8486L67.0025 69.294Z" stroke="white" stroke-width="0.8"/>
<path d="M49.7988 71.6249C50.0489 71.4195 50.2683 70.4709 50.4953 69.2478M52.7972 71.9356L52.6745 69.6395M52.6745 69.6395L52.284 62.3325C51.4451 63.1715 50.9547 66.772 50.4953 69.2478M52.6745 69.6395C51.9191 69.834 50.9069 69.4594 50.4953 69.2478" stroke="white" stroke-width="0.8"/>
<path d="M44.9244 59.3613L44.3909 64.0886M43.8574 68.8158L44.3909 64.0886M44.3909 64.0886L46.2616 64.6288L47.0719 59.9016L45.4647 69.4506" stroke="white" stroke-width="0.8"/>
<path d="M57.9695 72.0165C57.7534 67.6945 57.0781 64.2638 57.0781 62.4405C57.9695 63.9262 59.955 69.5043 60.9274 71.8679L60.2926 61.8867" stroke="white" stroke-width="0.8"/>
<path d="M61.377 89.5794C61.5234 89.589 61.6642 89.58 61.7994 89.554M61.7994 89.554C65.2954 88.8817 65.0185 76.8157 60.1322 79.1117L61.7994 89.554Z" stroke="white" stroke-width="0.8"/>
<path d="M50.8863 89.4646C51.1716 89.2578 51.4726 88.2411 51.7998 86.9265M54.1251 89.9997L54.1429 87.4958M54.1429 87.4958L54.1994 79.5274C53.2323 80.3841 52.4622 84.2656 51.7998 86.9265M54.1429 87.4958C53.3089 87.6574 52.2333 87.1836 51.7998 86.9265" stroke="white" stroke-width="0.8"/>
<path d="M40.4121 86.9545L43.0053 76.8652C43.5726 79.1343 43.0909 83.5509 42.8298 85.5904L46.8817 77.2434L44.2884 88.0755" stroke="white" stroke-width="0.8"/>
<path d="M70.3029 76.4736L68.8848 76.6897C69.3885 77.3614 69.9042 79.3079 70.3633 81.4305M71.3699 86.5494L73.0717 86.2793M71.3699 86.5494C71.1031 85.1656 70.7536 83.2345 70.3633 81.4305M71.3699 86.5494L70.3633 81.4305M70.3633 81.4305C70.6716 81.1279 71.1628 81.0973 71.3699 81.1198" stroke="white" stroke-width="0.8"/>
</svg>
