<svg width="111" height="115" viewBox="0 0 111 115" fill="none" xmlns="http://www.w3.org/2000/svg">
<path d="M102.841 19.1858C100.487 19.1858 98.3094 20.3099 96.9441 22.1766H79.8502V20.8579C79.8502 19.9342 79.1018 19.1858 78.1781 19.1858C77.2545 19.1858 76.5061 19.9342 76.5061 20.8579V22.1766H69.9482V20.8579C69.9482 19.9342 69.1998 19.1858 68.2761 19.1858C67.3525 19.1858 66.6041 19.9342 66.6041 20.8579V22.1766H60.0462V20.8579C60.0462 19.9342 59.2978 19.1858 58.3741 19.1858C57.4505 19.1858 56.7021 19.9342 56.7021 20.8579V22.1766H52.2236L64.7238 9.67661C64.8665 9.53371 64.9822 9.36628 65.0653 9.18213L68.1453 2.36008C68.4313 1.72625 68.2953 0.9814 67.8037 0.489588C67.3119 -0.00177794 66.5671 -0.137996 65.9332 0.14804L59.1112 3.22799C58.927 3.31115 58.7596 3.42708 58.6167 3.56976L55.0543 7.13239C54.4013 7.78539 54.4013 8.84414 55.0543 9.49692C55.7071 10.1497 56.7658 10.1499 57.4191 9.4967L60.7657 6.14988L63.2764 5.01644L62.143 7.52722C61.078 8.59222 31.1261 38.5441 29.8415 39.8287L28.4644 38.4516L52.688 14.2282C53.341 13.575 53.341 12.5165 52.688 11.8635C52.035 11.2107 50.9762 11.2107 50.3235 11.8635L40.0104 22.1766H26.7961C26.5941 22.1766 26.3939 22.2131 26.2051 22.2845L19.2031 24.9304C18.5526 25.1763 18.1221 25.7989 18.1221 26.4945C18.1221 27.1901 18.5526 27.8128 19.2031 28.0587L26.2048 30.7044C26.3937 30.7757 26.5939 30.8123 26.7959 30.8123H31.3744L26.0994 36.0873L24.9084 34.8963C24.2554 34.2436 23.1967 34.2436 22.5439 34.8963C21.8909 35.5496 21.8909 36.6081 22.5439 37.2611L23.7349 38.4521L19.0979 43.089L17.9069 41.8981C17.2539 41.2453 16.1952 41.2453 15.5424 41.8981C14.8894 42.5513 14.8894 43.6098 15.5424 44.2628L16.7333 45.4538L9.01507 53.1721C6.72991 52.8187 4.39503 53.5624 2.73031 55.2272C-0.125582 58.0831 -0.126919 62.7067 2.73031 65.5632C5.58621 68.4196 10.2094 68.4205 13.0666 65.5635C14.7315 63.8985 15.4764 61.5641 15.1219 59.2787L18.1227 56.2779V78.7041C18.1227 79.6278 18.8714 80.3762 19.7948 80.3762C20.7182 80.3762 21.4669 79.6278 21.4669 78.7041V68.6274C22.5941 69.0104 23.3748 69.7954 24.3422 70.7723C25.8383 72.2827 27.7006 74.1628 31.2656 74.1628C34.8307 74.1628 36.693 72.2827 38.1891 70.7723C39.5691 69.3791 40.5662 68.3723 42.7367 68.3723C47.3985 68.3723 47.742 74.1628 54.2085 74.1628C57.7735 74.1628 59.6358 72.2827 61.132 70.7723C62.512 69.3791 63.5092 68.3723 65.6795 68.3723C70.3415 68.3723 70.6857 74.1628 77.1524 74.1628C82.7848 74.1628 83.9544 69.6458 86.9532 68.6271V90.0791C81.8085 91.0545 81.5165 95.7142 77.1524 95.7142C72.4904 95.7142 72.1462 89.9237 65.6795 89.9237C62.1145 89.9237 60.2522 91.8038 58.756 93.3143C57.376 94.7074 56.3788 95.7142 54.2085 95.7142C49.5467 95.7142 49.2032 89.9237 42.7367 89.9237C39.1716 89.9237 37.3094 91.8038 35.8132 93.3143C34.4332 94.7074 33.4362 95.7142 31.2656 95.7142C26.9238 95.7142 26.5662 91.046 21.4669 90.0791V85.3824C21.4669 84.4587 20.7182 83.7103 19.7948 83.7103C18.8714 83.7103 18.1227 84.4587 18.1227 85.3824V100.031C18.1227 103.795 21.1851 106.858 24.9492 106.858H26.0405V112.475C26.0405 113.398 26.7892 114.147 27.7126 114.147C28.636 114.147 29.3847 113.398 29.3847 112.475V106.858H39.2894V112.475C39.2894 113.398 40.038 114.147 40.9614 114.147C41.8849 114.147 42.6335 113.398 42.6335 112.475V106.858H52.5375V112.475C52.5375 113.398 53.2861 114.147 54.2096 114.147C55.133 114.147 55.8816 113.398 55.8816 112.475V106.858H65.7863V112.475C65.7863 113.398 66.5347 114.147 67.4584 114.147C68.382 114.147 69.1305 113.398 69.1305 112.475V106.858H79.0351V112.475C79.0351 113.398 79.7836 114.147 80.7072 114.147C81.6309 114.147 82.3793 113.398 82.3793 112.475V106.858H83.4706C87.2348 106.858 90.2971 103.795 90.2971 100.031V30.8123H96.9444C98.3097 32.679 100.487 33.8033 102.842 33.8033C103.16 33.8033 103.489 33.7807 103.819 33.7366C104.734 33.6142 105.377 32.7733 105.255 31.8576C105.132 30.9425 104.29 30.299 103.376 30.4221C103.189 30.4469 103.014 30.4591 102.842 30.4591C101.373 30.4591 100.032 29.6525 99.3399 28.3541C99.0494 27.809 98.482 27.4681 97.8642 27.4681C97.8337 27.4681 79.8776 27.4558 79.8504 27.4558V25.5207H97.8642C98.482 25.5207 99.0494 25.18 99.3399 24.6347C100.032 23.3365 101.373 22.5299 102.842 22.5299C105.028 22.5299 106.806 24.3086 106.806 26.4945C106.806 26.7119 106.787 26.9353 106.75 27.1587C106.596 28.0694 107.21 28.9317 108.121 29.0851C108.215 29.1009 108.308 29.1085 108.4 29.1085C109.202 29.1085 109.91 28.5304 110.047 27.7138C110.116 27.3074 110.151 26.8972 110.151 26.4943C110.15 22.4644 106.872 19.1858 102.841 19.1858ZM27.1013 27.4681L24.5243 26.4945L27.1013 25.5207H36.666L34.7186 27.4681H27.1013ZM66.6041 25.5207V27.4373L60.0462 27.4282V25.5207H66.6041ZM56.7021 25.5207V27.4233L46.9905 27.4097L48.8795 25.5207H56.7021ZM26.0996 40.8168L27.4767 42.1939L22.8398 46.8309L21.4626 45.4538L26.0996 40.8168ZM12.1062 57.5643C11.6694 58.0012 11.5089 58.6433 11.689 59.2341C12.118 60.6415 11.7394 62.1605 10.7012 63.1987C9.15151 64.7482 6.6443 64.7486 5.0944 63.1985C3.54495 61.6492 3.54472 59.1414 5.0944 57.5917C6.13242 56.5537 7.65133 56.1744 9.05877 56.6041C9.64979 56.7842 10.2919 56.6237 10.7286 56.1871L19.0974 47.8183L20.4746 49.1954L12.1062 57.5643ZM77.1517 70.8184C72.4898 70.8184 72.1455 65.0279 65.6789 65.0279C62.1138 65.0279 60.2515 66.908 58.7554 68.4185C57.3754 69.8116 56.3781 70.8184 54.2078 70.8184C49.5461 70.8184 49.2025 65.0279 42.736 65.0279C39.171 65.0279 37.3087 66.908 35.8126 68.4185C34.4325 69.8116 33.4355 70.8184 31.265 70.8184C29.0946 70.8184 28.0974 69.8119 26.7176 68.4185C25.4754 67.1644 23.9776 65.6595 21.4662 65.1831V52.9333L22.8783 51.5214C23.5347 51.9082 24.3669 51.8059 24.9084 51.2646C25.4591 50.7137 25.5436 49.8756 25.1655 49.2345L25.8383 48.5616C27.1343 49.6378 28.7883 50.5429 31.2652 50.5429C34.8303 50.5429 36.6925 48.6628 38.1887 47.1524C39.5687 45.759 40.5657 44.7524 42.7363 44.7524C47.398 44.7524 47.7416 50.5429 54.208 50.5429C57.7731 50.5429 59.6353 48.6628 61.1315 47.1524C62.5115 45.759 63.5087 44.7524 65.6791 44.7524C70.341 44.7524 70.6853 50.5429 77.1519 50.5429C82.7844 50.5429 83.9539 46.0259 86.9527 45.0072V65.1833C81.8079 66.1587 81.5158 70.8184 77.1517 70.8184ZM83.4701 103.514H24.9488C23.0286 103.514 21.4664 101.951 21.4664 100.031V93.5231C24.461 94.5409 25.6386 99.0586 31.2652 99.0586C34.8303 99.0586 36.6925 97.1785 38.1887 95.6681C39.5687 94.2749 40.5657 93.2681 42.7363 93.2681C47.398 93.2681 47.7416 99.0586 54.208 99.0586C57.7731 99.0586 59.6353 97.1785 61.1315 95.6681C62.5115 94.2749 63.5087 93.2681 65.6791 93.2681C70.341 93.2681 70.6853 99.0586 77.1519 99.0586C82.7844 99.0586 83.9539 94.5415 86.9527 93.5229V100.031C86.9525 101.951 85.3903 103.514 83.4701 103.514ZM86.9525 41.5637C81.8079 42.539 81.5158 47.1988 77.1517 47.1988C72.4898 47.1988 72.1455 41.4083 65.6789 41.4083C62.1138 41.4083 60.2515 43.2884 58.7554 44.7988C57.3754 46.1922 56.3781 47.1988 54.2078 47.1988C49.5461 47.1988 49.2025 41.4083 42.736 41.4083C39.171 41.4083 37.3087 43.2884 35.8126 44.7988C34.4325 46.1922 33.4355 47.1988 31.265 47.1988C29.9182 47.1988 29.0237 46.8093 28.2131 46.1866L29.8801 44.5197C30.5362 44.9065 31.3684 44.8044 31.9102 44.2628C32.4608 43.7119 32.5453 42.8739 32.1672 42.2327L43.5877 30.8123H56.7021V31.2405C56.7021 32.1642 57.4505 32.9126 58.3741 32.9126C59.2978 32.9126 60.0462 32.1642 60.0462 31.2405V30.8123H66.6041V31.2405C66.6041 32.1642 67.3525 32.9126 68.2761 32.9126C69.1998 32.9126 69.9482 32.1642 69.9482 31.2405V30.8123H76.5061V31.2405C76.5061 32.1642 77.2545 32.9126 78.1781 32.9126C79.1018 32.9126 79.8502 32.1642 79.8502 31.2405V30.8123H86.9525V41.5637ZM76.5061 27.4512L69.9482 27.4418V25.5205H76.5061V27.4512Z" fill="#FFD9D9"/>
</svg>
